<svg width="36" height="36" viewBox="0 0 36 36" fill="none" xmlns="http://www.w3.org/2000/svg">
<path d="M35.5849 18.1472C35.3106 18.4238 34.9521 18.5621 34.5937 18.5621C34.2323 18.5621 33.871 18.4215 33.5961 18.1406L32.4844 17.0043V22.2028C32.4844 22.9914 31.8548 23.6306 31.0781 23.6306C30.3014 23.6306 29.6719 22.9914 29.6719 22.2028V14.13L18.9768 3.19984C18.452 2.74339 17.6793 2.74167 17.1524 3.19591L6.32608 14.1662C6.3265 14.1799 6.32811 14.1934 6.32811 14.2074V29.3416C6.32811 30.9161 7.5898 32.1971 9.14061 32.1971H26.8594C28.4102 32.1971 29.6719 30.9161 29.6719 29.3416C29.6719 28.5531 30.3014 27.9138 31.0781 27.9138C31.8548 27.9138 32.4844 28.5531 32.4844 29.3416C32.4844 32.4907 29.961 35.0526 26.8594 35.0526H9.14061C6.03899 35.0526 3.51562 32.4907 3.51562 29.3416V17.014L2.39962 18.1449C1.84998 18.7019 0.959616 18.701 0.410898 18.1429C-0.13775 17.5848 -0.136836 16.6808 0.412867 16.1237C0.412867 16.1237 15.2371 1.10339 15.2571 1.08533C16.8632 -0.366416 19.2809 -0.361133 20.8808 1.09739C20.9007 1.11553 35.5913 16.128 35.5913 16.128C36.1388 16.6874 36.1358 17.5914 35.5849 18.1472Z" fill="#1DC984"/>
</svg>
