<?xml version="1.0" encoding="UTF-8" standalone="no"?>
<svg
   version="1.1"
   width="512"
   height="512"
   x="0"
   y="0"
   viewBox="0 0 512 512"
   style="enable-background:new 0 0 512 512"
   xml:space="preserve"
   class=""
   id="svg50"
   sodipodi:docname="minus-time.svg"
   inkscape:version="1.1 (c4e8f9ed74, 2021-05-24)"
   xmlns:inkscape="http://www.inkscape.org/namespaces/inkscape"
   xmlns:sodipodi="http://sodipodi.sourceforge.net/DTD/sodipodi-0.dtd"
   xmlns="http://www.w3.org/2000/svg"
   xmlns:svg="http://www.w3.org/2000/svg"><defs
     id="defs54" /><sodipodi:namedview
     id="namedview52"
     pagecolor="#ffffff"
     bordercolor="#666666"
     borderopacity="1.0"
     inkscape:pageshadow="2"
     inkscape:pageopacity="0.0"
     inkscape:pagecheckerboard="0"
     showgrid="false"
     inkscape:zoom="0.36322087"
     inkscape:cx="143.16358"
     inkscape:cy="159.68246"
     inkscape:window-width="1366"
     inkscape:window-height="740"
     inkscape:window-x="0"
     inkscape:window-y="0"
     inkscape:window-maximized="1"
     inkscape:current-layer="svg50" /><g
     id="g13967"><g
       id="g48"
       style="fill:#d6d8e1;fill-opacity:1">
<g
   id="g16"
   style="fill:#d6d8e1;fill-opacity:1">
	<g
   id="g14"
   style="fill:#d6d8e1;fill-opacity:1">
		<g
   id="g12"
   style="fill:#d6d8e1;fill-opacity:1">
			
			<path
   id="path4"
   style="fill:#d6d8e1;fill-opacity:1"
   class=""
   d="m 473.35156,292.39844 c -0.55734,0.56481 -1.08491,1.16138 -1.57422,1.79297 0.0889,0.26682 0.18551,0.53405 0.27344,0.80078 0.4214,-0.87071 0.86272,-1.73145 1.30078,-2.59375 z" />
			<path
   id="path6"
   style="fill:#d6d8e1;fill-opacity:1"
   class=""
   d="m 369.89453,442.29688 c -0.47863,0.0477 -0.95648,0.11844 -1.43359,0.20117 -0.19016,0.45051 -0.38024,0.90102 -0.57032,1.35156 0.37014,0.81253 -0.52969,2.99992 0.19141,2.57031 0.89551,-0.53351 0.0903,-2.08161 0.13477,-3.12304 0.56141,-0.32955 1.11958,-0.66473 1.67773,-1 z m -34.96875,34.80273 c 0.0533,0.17184 0.11796,0.34242 0.17578,0.51367 0.0706,-0.15315 0.1455,-0.30424 0.2168,-0.45703 -0.13144,-0.0179 -0.26531,-0.0339 -0.39258,-0.0566 z" />
			<path
   d="m 236,96 v 151.716 l -73.339,73.338 c -7.81,7.811 -7.81,20.474 0,28.284 3.906,3.906 9.023,5.858 14.143,5.858 5.118,0 10.237,-1.953 14.143,-5.858 l 79.196,-79.196 C 273.893,266.392 276,261.304 276,256 V 96 c 0,-11.046 -8.954,-20 -20,-20 -11.046,0 -20,8.954 -20,20 z"
   fill="#d6d8e1"
   data-original="#000000"
   style="fill:#d6d8e1;fill-opacity:1"
   class=""
   id="path8" />
			<path
   id="path10"
   style="fill:#d6d8e1;fill-opacity:1"
   class=""
   d="M 256,0 C 187.62,0 123.33347,26.629469 74.980469,74.980469 26.629469,123.33347 0,187.62 0,256 0,324.38 26.629469,388.66653 74.980469,437.01953 123.33347,485.37053 187.62,512 256,512 c 0.169,0 0.332,-0.0214 0.5,-0.0254 0.168,0.004 0.331,0.0254 0.5,0.0254 7.208,0 14.48672,-0.30434 21.63672,-0.90234 11.007,-0.922 19.18272,-10.59261 18.26172,-21.59961 -0.923,-11.007 -10.57961,-19.18577 -21.59961,-18.25977 C 269.25483,471.74328 263.099,472 257,472 c -0.169,0 -0.332,0.0214 -0.5,0.0254 C 256.332,472.02135 256.169,472 256,472 136.897,472 40,375.103 40,256 40,136.897 136.897,40 256,40 c 76.758,0 147.35655,40.913 185.93555,106 h -54.99219 c -11.046,0 -20,8.954 -20,20 0,11.046 8.954,20 20,20 H 448 c 12.18,0 23.57534,-3.42352 33.27734,-9.35352 0.624,-0.356 1.22293,-0.73934 1.79493,-1.15234 C 500.47827,164.04314 512,144.347 512,122 V 63 c 0,-11.046 -8.954,-20 -20,-20 -11.046,0 -20,8.954 -20,20 v 55.53516 C 425.448,45.52714 344.151,0 256,0 Z" />
		</g>
	</g>
</g>
<g
   id="g18"
   style="fill:#d6d8e1;fill-opacity:1">
</g>
<g
   id="g20"
   style="fill:#d6d8e1;fill-opacity:1">
</g>
<g
   id="g22"
   style="fill:#d6d8e1;fill-opacity:1">
</g>
<g
   id="g24"
   style="fill:#d6d8e1;fill-opacity:1">
</g>
<g
   id="g26"
   style="fill:#d6d8e1;fill-opacity:1">
</g>
<g
   id="g28"
   style="fill:#d6d8e1;fill-opacity:1">
</g>
<g
   id="g30"
   style="fill:#d6d8e1;fill-opacity:1">
</g>
<g
   id="g32"
   style="fill:#d6d8e1;fill-opacity:1">
</g>
<g
   id="g34"
   style="fill:#d6d8e1;fill-opacity:1">
</g>
<g
   id="g36"
   style="fill:#d6d8e1;fill-opacity:1">
</g>
<g
   id="g38"
   style="fill:#d6d8e1;fill-opacity:1">
</g>
<g
   id="g40"
   style="fill:#d6d8e1;fill-opacity:1">
</g>
<g
   id="g42"
   style="fill:#d6d8e1;fill-opacity:1">
</g>
<g
   id="g44"
   style="fill:#d6d8e1;fill-opacity:1">
</g>
<g
   id="g46"
   style="fill:#d6d8e1;fill-opacity:1">
</g>
</g><g
       id="g13900"
       transform="matrix(2.0462419,0,0,2.0462419,329.87981,214.85303)">
<g
   id="g13868">
	<path
   d="M 112,50 H 12 C 5.4,50 0,55.4 0,62 0,68.6 5.4,74 12,74 h 100 c 6.6,0 12,-5.4 12,-12 0,-6.6 -5.4,-12 -12,-12 z"
   fill="#d6d8e1"
   data-original="#000000"
   class=""
   id="path13866" />
</g>
<g
   id="g13870">
</g>
<g
   id="g13872">
</g>
<g
   id="g13874">
</g>
<g
   id="g13876">
</g>
<g
   id="g13878">
</g>
<g
   id="g13880">
</g>
<g
   id="g13882">
</g>
<g
   id="g13884">
</g>
<g
   id="g13886">
</g>
<g
   id="g13888">
</g>
<g
   id="g13890">
</g>
<g
   id="g13892">
</g>
<g
   id="g13894">
</g>
<g
   id="g13896">
</g>
<g
   id="g13898">
</g>
</g></g></svg>
