<svg width="35" height="30" viewBox="0 0 35 30" fill="none" xmlns="http://www.w3.org/2000/svg">
<path d="M24.8602 29H9.51874C9.36987 29 9.22363 28.9612 9.09471 28.8875C8.9658 28.8137 8.85874 28.7077 8.78431 28.58L1.11362 15.42C1.03919 15.2923 1 15.1475 1 15C1 14.8525 1.03919 14.7077 1.11362 14.58L8.78431 1.42C8.85874 1.2923 8.9658 1.18626 9.09472 1.11254C9.22364 1.03881 9.36988 1 9.51874 1L24.8602 1C25.009 1 25.1553 1.03881 25.2842 1.11254C25.4131 1.18626 25.5202 1.2923 25.5946 1.42L33.2653 14.58C33.3397 14.7077 33.3789 14.8525 33.3789 15C33.3789 15.1475 33.3397 15.2923 33.2653 15.42L25.5946 28.58C25.5202 28.7077 25.4131 28.8137 25.2842 28.8875C25.1553 28.9612 25.009 29 24.8602 29V29Z" stroke="#1DC984" stroke-width="2" stroke-linecap="round"/>
<path d="M17.1895 20.3429C20.1686 20.3429 22.5836 17.9508 22.5836 15C22.5836 12.0492 20.1686 9.65707 17.1895 9.65707C14.2104 9.65707 11.7954 12.0492 11.7954 15C11.7954 17.9508 14.2104 20.3429 17.1895 20.3429Z" stroke="#1DC984" stroke-width="2" stroke-linecap="round"/>
</svg>
