<svg width="16" height="18" viewBox="0 0 16 18" fill="none" xmlns="http://www.w3.org/2000/svg">
<path d="M14.0885 5.53285L14.8011 4.82712C15.078 4.55287 15.078 4.1082 14.8011 3.83409C14.5242 3.55984 14.0753 3.55984 13.7984 3.83409L13.0858 4.53983C11.8903 3.55325 10.4375 2.95724 8.8878 2.81772V1.40446H9.57321C9.96479 1.40446 10.2822 1.08998 10.2822 0.702164C10.2822 0.314346 9.96479 0 9.57321 0H6.7843C6.39271 0 6.07531 0.314346 6.07531 0.702164C6.07531 1.08998 6.39271 1.40446 6.7843 1.40446H7.4697V2.81772C3.59048 3.16708 0.49762 6.39459 0.49762 10.3927C0.49762 14.5971 3.93298 18 8.17882 18C12.424 18 15.8599 14.5977 15.8599 10.3927C15.8599 8.59666 15.2354 6.89584 14.0885 5.53285ZM8.17868 16.5955C4.7253 16.5955 1.91558 13.813 1.91558 10.3927C1.91558 6.97247 4.7253 4.18991 8.17868 4.18991C11.6322 4.18991 14.4418 6.97247 14.4418 10.3927C14.4418 13.813 11.6322 16.5955 8.17868 16.5955ZM11.4646 7.1385C11.7415 7.41275 11.7415 7.85742 11.4646 8.13153L8.68009 10.8892C8.40318 11.1635 7.95419 11.1635 7.67742 10.8892C7.40051 10.615 7.40051 10.1703 7.67742 9.89621L10.4618 7.1385C10.7387 6.86426 11.1877 6.86426 11.4646 7.1385Z" fill="#1DC984"/>
</svg>
