<svg width="34" height="34" viewBox="0 0 34 34" fill="none" xmlns="http://www.w3.org/2000/svg">
<path d="M17 6.8C16.5687 6.8 16.1551 6.62868 15.8502 6.32373C15.5452 6.01878 15.3739 5.60518 15.3739 5.17391V1.62609C15.3739 1.19482 15.5452 0.78122 15.8502 0.47627C16.1551 0.171319 16.5687 0 17 0C17.4313 0 17.8449 0.171319 18.1498 0.47627C18.4548 0.78122 18.6261 1.19482 18.6261 1.62609V5.17391C18.6261 5.60518 18.4548 6.01878 18.1498 6.32373C17.8449 6.62868 17.4313 6.8 17 6.8ZM17 34C16.5687 34 16.1551 33.8287 15.8502 33.5237C15.5452 33.2188 15.3739 32.8052 15.3739 32.3739V28.8261C15.3739 28.3948 15.5452 27.9812 15.8502 27.6763C16.1551 27.3713 16.5687 27.2 17 27.2C17.4313 27.2 17.8449 27.3713 18.1498 27.6763C18.4548 27.9812 18.6261 28.3948 18.6261 28.8261V32.3739C18.6261 32.8052 18.4548 33.2188 18.1498 33.5237C17.8449 33.8287 17.4313 34 17 34ZM25.3625 10.2636C25.041 10.2635 24.7267 10.1682 24.4593 9.98953C24.192 9.8109 23.9836 9.55701 23.8605 9.25997C23.7374 8.96293 23.7052 8.63606 23.7678 8.32068C23.8304 8.00531 23.9852 7.71558 24.2124 7.48813L26.721 4.97952C27.0273 4.6812 27.4388 4.51552 27.8663 4.51833C28.2939 4.52115 28.7031 4.69224 29.0054 4.99457C29.3078 5.29689 29.4789 5.70613 29.4817 6.13367C29.4845 6.56122 29.3188 6.97267 29.0205 7.27896L26.5119 9.78757C26.3611 9.93869 26.1819 10.0585 25.9847 10.1402C25.7874 10.2219 25.576 10.2638 25.3625 10.2636ZM6.12887 29.4972C5.80724 29.4972 5.49285 29.4018 5.22546 29.223C4.95807 29.0443 4.74968 28.7903 4.62665 28.4931C4.50362 28.196 4.47148 27.869 4.53429 27.5536C4.5971 27.2381 4.75205 26.9484 4.97952 26.721L7.48813 24.2124C7.63838 24.0582 7.81778 23.9353 8.01591 23.8509C8.21403 23.7666 8.42694 23.7224 8.64228 23.721C8.85762 23.7195 9.0711 23.7609 9.27032 23.8427C9.46954 23.9244 9.65054 24.0449 9.80281 24.1972C9.95508 24.3495 10.0756 24.5305 10.1573 24.7297C10.2391 24.9289 10.2805 25.1424 10.279 25.3577C10.2776 25.5731 10.2334 25.786 10.1491 25.9841C10.0647 26.1822 9.94183 26.3616 9.78757 26.5119L7.27896 29.0205C7.12811 29.1718 6.94886 29.2918 6.75149 29.3736C6.55412 29.4554 6.34252 29.4974 6.12887 29.4972ZM32.3739 18.6261H28.8261C28.3948 18.6261 27.9812 18.4548 27.6763 18.1498C27.3713 17.8449 27.2 17.4313 27.2 17C27.2 16.5687 27.3713 16.1551 27.6763 15.8502C27.9812 15.5452 28.3948 15.3739 28.8261 15.3739H32.3739C32.8052 15.3739 33.2188 15.5452 33.5237 15.8502C33.8287 16.1551 34 16.5687 34 17C34 17.4313 33.8287 17.8449 33.5237 18.1498C33.2188 18.4548 32.8052 18.6261 32.3739 18.6261ZM5.17391 18.6261H1.62609C1.19482 18.6261 0.78122 18.4548 0.47627 18.1498C0.171319 17.8449 0 17.4313 0 17C0 16.5687 0.171319 16.1551 0.47627 15.8502C0.78122 15.5452 1.19482 15.3739 1.62609 15.3739H5.17391C5.60518 15.3739 6.01878 15.5452 6.32373 15.8502C6.62868 16.1551 6.8 16.5687 6.8 17C6.8 17.4313 6.62868 17.8449 6.32373 18.1498C6.01878 18.4548 5.60518 18.6261 5.17391 18.6261ZM27.8711 29.4972C27.6575 29.4974 27.4459 29.4554 27.2485 29.3736C27.0511 29.2918 26.8719 29.1718 26.721 29.0205L24.2124 26.5119C23.9141 26.2056 23.7484 25.7941 23.7512 25.3666C23.7541 24.939 23.9252 24.5298 24.2275 24.2275C24.5298 23.9252 24.939 23.7541 25.3666 23.7512C25.7941 23.7484 26.2056 23.9141 26.5119 24.2124L29.0205 26.721C29.248 26.9484 29.4029 27.2381 29.4657 27.5536C29.5285 27.869 29.4964 28.196 29.3734 28.4931C29.2503 28.7903 29.0419 29.0443 28.7745 29.223C28.5071 29.4018 28.1928 29.4972 27.8711 29.4972ZM8.63748 10.2636C8.42397 10.264 8.21249 10.2221 8.01523 10.1404C7.81797 10.0587 7.63883 9.93882 7.48813 9.78757L4.97952 7.27896C4.6812 6.97267 4.51552 6.56122 4.51833 6.13367C4.52115 5.70613 4.69224 5.29689 4.99457 4.99457C5.29689 4.69224 5.70613 4.52115 6.13367 4.51833C6.56122 4.51552 6.97267 4.6812 7.27896 4.97952L9.78757 7.48813C10.0148 7.71558 10.1696 8.00531 10.2322 8.32068C10.2949 8.63606 10.2626 8.96293 10.1395 9.25997C10.0164 9.55701 9.80802 9.8109 9.54067 9.98953C9.27332 10.1682 8.95901 10.2635 8.63748 10.2636ZM17 24.5391C15.5089 24.5391 14.0513 24.097 12.8115 23.2686C11.5717 22.4401 10.6054 21.2627 10.0348 19.8851C9.46413 18.5075 9.31483 16.9916 9.60573 15.5292C9.89663 14.0667 10.6147 12.7234 11.669 11.669C12.7234 10.6147 14.0667 9.89663 15.5292 9.60573C16.9916 9.31483 18.5075 9.46413 19.8851 10.0348C21.2627 10.6054 22.4401 11.5717 23.2686 12.8115C24.097 14.0513 24.5391 15.5089 24.5391 17C24.5368 18.9988 23.7417 20.915 22.3284 22.3284C20.915 23.7417 18.9988 24.5368 17 24.5391Z" fill="#F7C99E"/>
</svg>
