<svg width="20" height="20" viewBox="0 0 20 20" fill="none" xmlns="http://www.w3.org/2000/svg">
<g clip-path="url(#clip0)">
<path d="M10 4.44448C11.2273 4.44448 12.2222 3.44955 12.2222 2.22224C12.2222 0.994931 11.2273 0 10 0C8.7727 0 7.77777 0.994931 7.77777 2.22224C7.77777 3.44955 8.7727 4.44448 10 4.44448Z" fill="#D6D8E1"/>
<path d="M10 12.2222C11.2273 12.2222 12.2222 11.2273 12.2222 9.99999C12.2222 8.77269 11.2273 7.77776 10 7.77776C8.7727 7.77776 7.77777 8.77269 7.77777 9.99999C7.77777 11.2273 8.7727 12.2222 10 12.2222Z" fill="#D6D8E1"/>
<path d="M10 20C11.2273 20 12.2222 19.0051 12.2222 17.7778C12.2222 16.5505 11.2273 15.5555 10 15.5555C8.7727 15.5555 7.77777 16.5505 7.77777 17.7778C7.77777 19.0051 8.7727 20 10 20Z" fill="#D6D8E1"/>
</g>
<defs>
<clipPath id="clip0">
<rect width="20" height="20" fill="white"/>
</clipPath>
</defs>
</svg>
